<svg xmlns="http://www.w3.org/2000/svg" viewBox="0 0 512 512">
<defs>
<radialGradient id="bg" cx="50%" cy="38%" r="75%"><stop offset="0" stop-color="#2F5A40"/><stop offset="1" stop-color="#173225"/></radialGradient>
<radialGradient id="disc" cx="45%" cy="40%" r="65%"><stop offset="0" stop-color="#4A2E17"/><stop offset="1" stop-color="#2B190C"/></radialGradient>
</defs>
<rect width="512" height="512" rx="112" fill="url(#bg)"/>
<g transform="translate(256 256) scale(0.9)">
<path d="M0,-100 C30,-139.9 16.5,-208 0,-214 C-16.5,-208 -30,-139.9 0,-100 Z" fill="#D98E04" transform="rotate(8.57)"/>
<path d="M0,-100 C30,-139.9 16.5,-208 0,-214 C-16.5,-208 -30,-139.9 0,-100 Z" fill="#D98E04" transform="rotate(25.71)"/>
<path d="M0,-100 C30,-139.9 16.5,-208 0,-214 C-16.5,-208 -30,-139.9 0,-100 Z" fill="#D98E04" transform="rotate(42.86)"/>
<path d="M0,-100 C30,-139.9 16.5,-208 0,-214 C-16.5,-208 -30,-139.9 0,-100 Z" fill="#D98E04" transform="rotate(60.00)"/>
<path d="M0,-100 C30,-139.9 16.5,-208 0,-214 C-16.5,-208 -30,-139.9 0,-100 Z" fill="#D98E04" transform="rotate(77.14)"/>
<path d="M0,-100 C30,-139.9 16.5,-208 0,-214 C-16.5,-208 -30,-139.9 0,-100 Z" fill="#D98E04" transform="rotate(94.28)"/>
<path d="M0,-100 C30,-139.9 16.5,-208 0,-214 C-16.5,-208 -30,-139.9 0,-100 Z" fill="#D98E04" transform="rotate(111.43)"/>
<path d="M0,-100 C30,-139.9 16.5,-208 0,-214 C-16.5,-208 -30,-139.9 0,-100 Z" fill="#D98E04" transform="rotate(128.57)"/>
<path d="M0,-100 C30,-139.9 16.5,-208 0,-214 C-16.5,-208 -30,-139.9 0,-100 Z" fill="#D98E04" transform="rotate(145.71)"/>
<path d="M0,-100 C30,-139.9 16.5,-208 0,-214 C-16.5,-208 -30,-139.9 0,-100 Z" fill="#D98E04" transform="rotate(162.86)"/>
<path d="M0,-100 C30,-139.9 16.5,-208 0,-214 C-16.5,-208 -30,-139.9 0,-100 Z" fill="#D98E04" transform="rotate(180.00)"/>
<path d="M0,-100 C30,-139.9 16.5,-208 0,-214 C-16.5,-208 -30,-139.9 0,-100 Z" fill="#D98E04" transform="rotate(197.14)"/>
<path d="M0,-100 C30,-139.9 16.5,-208 0,-214 C-16.5,-208 -30,-139.9 0,-100 Z" fill="#D98E04" transform="rotate(214.28)"/>
<path d="M0,-100 C30,-139.9 16.5,-208 0,-214 C-16.5,-208 -30,-139.9 0,-100 Z" fill="#D98E04" transform="rotate(231.43)"/>
<path d="M0,-100 C30,-139.9 16.5,-208 0,-214 C-16.5,-208 -30,-139.9 0,-100 Z" fill="#D98E04" transform="rotate(248.57)"/>
<path d="M0,-100 C30,-139.9 16.5,-208 0,-214 C-16.5,-208 -30,-139.9 0,-100 Z" fill="#D98E04" transform="rotate(265.71)"/>
<path d="M0,-100 C30,-139.9 16.5,-208 0,-214 C-16.5,-208 -30,-139.9 0,-100 Z" fill="#D98E04" transform="rotate(282.86)"/>
<path d="M0,-100 C30,-139.9 16.5,-208 0,-214 C-16.5,-208 -30,-139.9 0,-100 Z" fill="#D98E04" transform="rotate(300.00)"/>
<path d="M0,-100 C30,-139.9 16.5,-208 0,-214 C-16.5,-208 -30,-139.9 0,-100 Z" fill="#D98E04" transform="rotate(317.14)"/>
<path d="M0,-100 C30,-139.9 16.5,-208 0,-214 C-16.5,-208 -30,-139.9 0,-100 Z" fill="#D98E04" transform="rotate(334.28)"/>
<path d="M0,-100 C30,-139.9 16.5,-208 0,-214 C-16.5,-208 -30,-139.9 0,-100 Z" fill="#D98E04" transform="rotate(351.43)"/>
<path d="M0,-96 C27,-132.4 14.850000000000001,-194 0,-200 C-14.850000000000001,-194 -27,-132.4 0,-96 Z" fill="#F6B819" transform="rotate(0.00)"/>
<path d="M0,-96 C27,-132.4 14.850000000000001,-194 0,-200 C-14.850000000000001,-194 -27,-132.4 0,-96 Z" fill="#F6B819" transform="rotate(17.14)"/>
<path d="M0,-96 C27,-132.4 14.850000000000001,-194 0,-200 C-14.850000000000001,-194 -27,-132.4 0,-96 Z" fill="#F6B819" transform="rotate(34.29)"/>
<path d="M0,-96 C27,-132.4 14.850000000000001,-194 0,-200 C-14.850000000000001,-194 -27,-132.4 0,-96 Z" fill="#F6B819" transform="rotate(51.43)"/>
<path d="M0,-96 C27,-132.4 14.850000000000001,-194 0,-200 C-14.850000000000001,-194 -27,-132.4 0,-96 Z" fill="#F6B819" transform="rotate(68.57)"/>
<path d="M0,-96 C27,-132.4 14.850000000000001,-194 0,-200 C-14.850000000000001,-194 -27,-132.4 0,-96 Z" fill="#F6B819" transform="rotate(85.71)"/>
<path d="M0,-96 C27,-132.4 14.850000000000001,-194 0,-200 C-14.850000000000001,-194 -27,-132.4 0,-96 Z" fill="#F6B819" transform="rotate(102.86)"/>
<path d="M0,-96 C27,-132.4 14.850000000000001,-194 0,-200 C-14.850000000000001,-194 -27,-132.4 0,-96 Z" fill="#F6B819" transform="rotate(120.00)"/>
<path d="M0,-96 C27,-132.4 14.850000000000001,-194 0,-200 C-14.850000000000001,-194 -27,-132.4 0,-96 Z" fill="#F6B819" transform="rotate(137.14)"/>
<path d="M0,-96 C27,-132.4 14.850000000000001,-194 0,-200 C-14.850000000000001,-194 -27,-132.4 0,-96 Z" fill="#F6B819" transform="rotate(154.29)"/>
<path d="M0,-96 C27,-132.4 14.850000000000001,-194 0,-200 C-14.850000000000001,-194 -27,-132.4 0,-96 Z" fill="#F6B819" transform="rotate(171.43)"/>
<path d="M0,-96 C27,-132.4 14.850000000000001,-194 0,-200 C-14.850000000000001,-194 -27,-132.4 0,-96 Z" fill="#F6B819" transform="rotate(188.57)"/>
<path d="M0,-96 C27,-132.4 14.850000000000001,-194 0,-200 C-14.850000000000001,-194 -27,-132.4 0,-96 Z" fill="#F6B819" transform="rotate(205.71)"/>
<path d="M0,-96 C27,-132.4 14.850000000000001,-194 0,-200 C-14.850000000000001,-194 -27,-132.4 0,-96 Z" fill="#F6B819" transform="rotate(222.86)"/>
<path d="M0,-96 C27,-132.4 14.850000000000001,-194 0,-200 C-14.850000000000001,-194 -27,-132.4 0,-96 Z" fill="#F6B819" transform="rotate(240.00)"/>
<path d="M0,-96 C27,-132.4 14.850000000000001,-194 0,-200 C-14.850000000000001,-194 -27,-132.4 0,-96 Z" fill="#F6B819" transform="rotate(257.14)"/>
<path d="M0,-96 C27,-132.4 14.850000000000001,-194 0,-200 C-14.850000000000001,-194 -27,-132.4 0,-96 Z" fill="#F6B819" transform="rotate(274.29)"/>
<path d="M0,-96 C27,-132.4 14.850000000000001,-194 0,-200 C-14.850000000000001,-194 -27,-132.4 0,-96 Z" fill="#F6B819" transform="rotate(291.43)"/>
<path d="M0,-96 C27,-132.4 14.850000000000001,-194 0,-200 C-14.850000000000001,-194 -27,-132.4 0,-96 Z" fill="#F6B819" transform="rotate(308.57)"/>
<path d="M0,-96 C27,-132.4 14.850000000000001,-194 0,-200 C-14.850000000000001,-194 -27,-132.4 0,-96 Z" fill="#F6B819" transform="rotate(325.71)"/>
<path d="M0,-96 C27,-132.4 14.850000000000001,-194 0,-200 C-14.850000000000001,-194 -27,-132.4 0,-96 Z" fill="#F6B819" transform="rotate(342.86)"/>
<path d="M0,-96 C16,-114.9 8.8,-144 0,-150 C-8.8,-144 -16,-114.9 0,-96 Z" fill="#FFD45C" transform="rotate(0.00)"/>
<path d="M0,-96 C16,-114.9 8.8,-144 0,-150 C-8.8,-144 -16,-114.9 0,-96 Z" fill="#FFD45C" transform="rotate(17.14)"/>
<path d="M0,-96 C16,-114.9 8.8,-144 0,-150 C-8.8,-144 -16,-114.9 0,-96 Z" fill="#FFD45C" transform="rotate(34.29)"/>
<path d="M0,-96 C16,-114.9 8.8,-144 0,-150 C-8.8,-144 -16,-114.9 0,-96 Z" fill="#FFD45C" transform="rotate(51.43)"/>
<path d="M0,-96 C16,-114.9 8.8,-144 0,-150 C-8.8,-144 -16,-114.9 0,-96 Z" fill="#FFD45C" transform="rotate(68.57)"/>
<path d="M0,-96 C16,-114.9 8.8,-144 0,-150 C-8.8,-144 -16,-114.9 0,-96 Z" fill="#FFD45C" transform="rotate(85.71)"/>
<path d="M0,-96 C16,-114.9 8.8,-144 0,-150 C-8.8,-144 -16,-114.9 0,-96 Z" fill="#FFD45C" transform="rotate(102.86)"/>
<path d="M0,-96 C16,-114.9 8.8,-144 0,-150 C-8.8,-144 -16,-114.9 0,-96 Z" fill="#FFD45C" transform="rotate(120.00)"/>
<path d="M0,-96 C16,-114.9 8.8,-144 0,-150 C-8.8,-144 -16,-114.9 0,-96 Z" fill="#FFD45C" transform="rotate(137.14)"/>
<path d="M0,-96 C16,-114.9 8.8,-144 0,-150 C-8.8,-144 -16,-114.9 0,-96 Z" fill="#FFD45C" transform="rotate(154.29)"/>
<path d="M0,-96 C16,-114.9 8.8,-144 0,-150 C-8.8,-144 -16,-114.9 0,-96 Z" fill="#FFD45C" transform="rotate(171.43)"/>
<path d="M0,-96 C16,-114.9 8.8,-144 0,-150 C-8.8,-144 -16,-114.9 0,-96 Z" fill="#FFD45C" transform="rotate(188.57)"/>
<path d="M0,-96 C16,-114.9 8.8,-144 0,-150 C-8.8,-144 -16,-114.9 0,-96 Z" fill="#FFD45C" transform="rotate(205.71)"/>
<path d="M0,-96 C16,-114.9 8.8,-144 0,-150 C-8.8,-144 -16,-114.9 0,-96 Z" fill="#FFD45C" transform="rotate(222.86)"/>
<path d="M0,-96 C16,-114.9 8.8,-144 0,-150 C-8.8,-144 -16,-114.9 0,-96 Z" fill="#FFD45C" transform="rotate(240.00)"/>
<path d="M0,-96 C16,-114.9 8.8,-144 0,-150 C-8.8,-144 -16,-114.9 0,-96 Z" fill="#FFD45C" transform="rotate(257.14)"/>
<path d="M0,-96 C16,-114.9 8.8,-144 0,-150 C-8.8,-144 -16,-114.9 0,-96 Z" fill="#FFD45C" transform="rotate(274.29)"/>
<path d="M0,-96 C16,-114.9 8.8,-144 0,-150 C-8.8,-144 -16,-114.9 0,-96 Z" fill="#FFD45C" transform="rotate(291.43)"/>
<path d="M0,-96 C16,-114.9 8.8,-144 0,-150 C-8.8,-144 -16,-114.9 0,-96 Z" fill="#FFD45C" transform="rotate(308.57)"/>
<path d="M0,-96 C16,-114.9 8.8,-144 0,-150 C-8.8,-144 -16,-114.9 0,-96 Z" fill="#FFD45C" transform="rotate(325.71)"/>
<path d="M0,-96 C16,-114.9 8.8,-144 0,-150 C-8.8,-144 -16,-114.9 0,-96 Z" fill="#FFD45C" transform="rotate(342.86)"/>
<circle r="122" fill="url(#disc)"/>
<circle cx="-7.1" cy="6.5" r="2.41" fill="#6B4423"/>
<circle cx="1.2" cy="-13.6" r="2.50" fill="#6B4423"/>
<circle cx="10.2" cy="13.2" r="2.57" fill="#8A5A2B"/>
<circle cx="-19.0" cy="-3.4" r="2.62" fill="#6B4423"/>
<circle cx="18.2" cy="-11.6" r="2.67" fill="#6B4423"/>
<circle cx="-6.1" cy="22.8" r="2.72" fill="#8A5A2B"/>
<circle cx="-11.7" cy="-22.6" r="2.76" fill="#6B4423"/>
<circle cx="25.6" cy="9.3" r="2.80" fill="#6B4423"/>
<circle cx="-26.7" cy="11.0" r="2.84" fill="#8A5A2B"/>
<circle cx="12.9" cy="-27.6" r="2.87" fill="#6B4423"/>
<circle cx="9.6" cy="30.5" r="2.90" fill="#6B4423"/>
<circle cx="-28.9" cy="-16.7" r="2.94" fill="#8A5A2B"/>
<circle cx="33.9" cy="-7.5" r="2.97" fill="#6B4423"/>
<circle cx="-20.7" cy="29.5" r="2.99" fill="#6B4423"/>
<circle cx="-4.8" cy="-37.0" r="3.02" fill="#8A5A2B"/>
<circle cx="29.5" cy="24.8" r="3.05" fill="#6B4423"/>
<circle cx="-39.7" cy="1.6" r="3.08" fill="#6B4423"/>
<circle cx="29.0" cy="-28.8" r="3.10" fill="#8A5A2B"/>
<circle cx="-1.9" cy="42.0" r="3.13" fill="#6B4423"/>
<circle cx="-27.6" cy="-33.1" r="3.15" fill="#6B4423"/>
<circle cx="43.8" cy="5.9" r="3.17" fill="#8A5A2B"/>
<circle cx="-37.1" cy="25.8" r="3.20" fill="#6B4423"/>
<circle cx="10.1" cy="-45.1" r="3.22" fill="#6B4423"/>
<circle cx="23.5" cy="41.0" r="3.24" fill="#8A5A2B"/>
<circle cx="-45.9" cy="-14.6" r="3.26" fill="#6B4423"/>
<circle cx="44.6" cy="-20.6" r="3.28" fill="#6B4423"/>
<circle cx="-19.3" cy="46.2" r="3.30" fill="#8A5A2B"/>
<circle cx="-17.3" cy="-48.0" r="3.32" fill="#6B4423"/>
<circle cx="45.9" cy="24.1" r="3.34" fill="#6B4423"/>
<circle cx="-51.0" cy="13.5" r="3.36" fill="#8A5A2B"/>
<circle cx="29.0" cy="-45.1" r="3.38" fill="#6B4423"/>
<circle cx="9.2" cy="53.7" r="3.40" fill="#6B4423"/>
<circle cx="-43.8" cy="-33.9" r="3.42" fill="#8A5A2B"/>
<circle cx="56.0" cy="-4.6" r="3.44" fill="#6B4423"/>
<circle cx="-38.7" cy="41.8" r="3.46" fill="#6B4423"/>
<circle cx="0.3" cy="-57.8" r="3.47" fill="#8A5A2B"/>
<circle cx="39.4" cy="43.4" r="3.49" fill="#6B4423"/>
<circle cx="-59.1" cy="-5.5" r="3.51" fill="#6B4423"/>
<circle cx="47.9" cy="-36.4" r="3.53" fill="#8A5A2B"/>
<circle cx="-10.9" cy="60.0" r="3.54" fill="#6B4423"/>
<circle cx="-32.9" cy="-52.2" r="3.56" fill="#6B4423"/>
<circle cx="60.2" cy="16.5" r="3.58" fill="#8A5A2B"/>
<circle cx="-56.2" cy="28.8" r="3.59" fill="#6B4423"/>
<circle cx="22.2" cy="-59.9" r="3.61" fill="#6B4423"/>
<circle cx="24.4" cy="59.9" r="3.62" fill="#8A5A2B"/>
<circle cx="-59.0" cy="-28.0" r="3.64" fill="#6B4423"/>
<circle cx="63.1" cy="-19.5" r="3.66" fill="#6B4423"/>
<circle cx="-33.8" cy="57.6" r="3.67" fill="#8A5A2B"/>
<circle cx="-14.2" cy="-65.9" r="3.69" fill="#6B4423"/>
<circle cx="55.5" cy="39.5" r="3.70" fill="#6B4423"/>
<circle cx="-68.3" cy="8.5" r="3.72" fill="#8A5A2B"/>
<circle cx="45.0" cy="-52.9" r="3.73" fill="#6B4423"/>
<circle cx="2.6" cy="70.1" r="3.75" fill="#6B4423"/>
<circle cx="-49.7" cy="-50.4" r="3.76" fill="#8A5A2B"/>
<circle cx="71.4" cy="3.6" r="3.77" fill="#6B4423"/>
<circle cx="-55.6" cy="45.9" r="3.79" fill="#6B4423"/>
<circle cx="10.1" cy="-72.0" r="3.80" fill="#8A5A2B"/>
<circle cx="41.6" cy="60.4" r="3.82" fill="#6B4423"/>
<circle cx="-72.1" cy="-16.6" r="3.83" fill="#6B4423"/>
<circle cx="64.9" cy="-36.8" r="3.84" fill="#8A5A2B"/>
<circle cx="-23.2" cy="71.6" r="3.86" fill="#6B4423"/>
<circle cx="-31.5" cy="-69.0" r="3.87" fill="#6B4423"/>
<circle cx="70.4" cy="29.9" r="3.88" fill="#8A5A2B"/>
<circle cx="-72.7" cy="25.7" r="3.90" fill="#6B4423"/>
<circle cx="36.5" cy="-68.6" r="3.91" fill="#6B4423"/>
<circle cx="19.6" cy="75.8" r="3.92" fill="#8A5A2B"/>
<circle cx="-66.1" cy="-43.0" r="3.94" fill="#6B4423"/>
<circle cx="78.4" cy="-13.1" r="3.95" fill="#6B4423"/>
<circle cx="-49.3" cy="63.0" r="3.96" fill="#8A5A2B"/>
<circle cx="-6.3" cy="-80.4" r="3.98" fill="#6B4423"/>
<circle cx="59.3" cy="55.4" r="3.99" fill="#6B4423"/>
<circle cx="-81.7" cy="-0.8" r="4.00" fill="#8A5A2B"/>
<circle cx="61.2" cy="-55.0" r="4.01" fill="#6B4423"/>
<circle cx="-8.1" cy="82.5" r="4.03" fill="#6B4423"/>
<circle cx="-50.1" cy="-66.7" r="4.04" fill="#8A5A2B"/>
<circle cx="82.6" cy="15.4" r="4.05" fill="#6B4423"/>
<circle cx="-71.8" cy="44.7" r="4.06" fill="#6B4423"/>
<circle cx="22.9" cy="-82.0" r="4.07" fill="#8A5A2B"/>
<circle cx="38.7" cy="76.4" r="4.09" fill="#6B4423"/>
<circle cx="-80.7" cy="-30.3" r="4.10" fill="#6B4423"/>
<circle cx="80.5" cy="-32.3" r="4.11" fill="#8A5A2B"/>
<circle cx="-37.7" cy="78.7" r="4.12" fill="#6B4423"/>
<circle cx="-25.5" cy="-84.0" r="4.13" fill="#6B4423"/>
<circle cx="76.0" cy="45.0" r="4.15" fill="#8A5A2B"/>
<circle cx="-86.9" cy="18.2" r="4.16" fill="#6B4423"/>
<circle cx="52.1" cy="-72.6" r="4.17" fill="#6B4423"/>
<circle cx="10.7" cy="89.2" r="4.18" fill="#8A5A2B"/>
<circle cx="-68.5" cy="-58.9" r="4.19" fill="#6B4423"/>
<circle cx="90.8" cy="-2.9" r="4.20" fill="#6B4423"/>
<circle cx="-65.4" cy="63.8" r="4.21" fill="#8A5A2B"/>
<circle cx="5.1" cy="-91.8" r="4.23" fill="#6B4423"/>
<circle cx="58.5" cy="71.5" r="4.24" fill="#6B4423"/>
<circle cx="-92.0" cy="-13.3" r="4.25" fill="#8A5A2B"/>
<circle cx="77.2" cy="-52.6" r="4.26" fill="#6B4423"/>
<circle cx="-21.5" cy="91.4" r="4.27" fill="#6B4423"/>
<circle cx="-46.1" cy="-82.4" r="4.28" fill="#8A5A2B"/>
<circle cx="90.1" cy="29.7" r="4.29" fill="#6B4423"/>
<circle cx="-87.0" cy="39.2" r="4.30" fill="#6B4423"/>
<circle cx="37.9" cy="-88.1" r="4.31" fill="#8A5A2B"/>
<circle cx="31.7" cy="91.0" r="4.32" fill="#6B4423"/>
<circle cx="-85.3" cy="-45.9" r="4.33" fill="#6B4423"/>
<circle cx="94.3" cy="-23.9" r="4.34" fill="#8A5A2B"/>
<circle cx="-53.7" cy="81.7" r="4.35" fill="#6B4423"/>
<circle cx="-15.7" cy="-97.0" r="4.36" fill="#6B4423"/>
<circle cx="77.5" cy="61.2" r="4.38" fill="#8A5A2B"/>
<circle cx="-98.9" cy="7.2" r="4.39" fill="#6B4423"/>
<circle cx="68.4" cy="-72.5" r="4.40" fill="#6B4423"/>
<circle cx="-1.5" cy="100.1" r="4.41" fill="#8A5A2B"/>
<circle cx="-66.9" cy="-75.2" r="4.42" fill="#6B4423"/>
<circle cx="100.5" cy="10.3" r="4.43" fill="#6B4423"/>
<circle cx="-81.5" cy="60.6" r="4.44" fill="#8A5A2B"/>
<circle cx="19.2" cy="-100.1" r="4.45" fill="#6B4423"/>
<circle cx="53.7" cy="87.2" r="4.46" fill="#6B4423"/>
<circle cx="-98.9" cy="-28.2" r="4.47" fill="#8A5A2B"/>
<circle cx="92.4" cy="-46.3" r="4.48" fill="#6B4423"/>
<circle cx="-37.0" cy="96.9" r="4.49" fill="#6B4423"/>
<circle cx="-38.3" cy="-96.9" r="4.50" fill="#8A5A2B"/>
<circle cx="94.1" cy="45.7" r="4.51" fill="#6B4423"/>
<circle cx="-100.7" cy="30.0" r="4.52" fill="#6B4423"/>
<circle cx="54.3" cy="-90.5" r="4.53" fill="#8A5A2B"/>
<circle cx="21.2" cy="103.8" r="4.54" fill="#6B4423"/>
<circle cx="-86.2" cy="-62.5" r="4.54" fill="#6B4423"/>
<circle cx="106.2" cy="-12.2" r="4.55" fill="#8A5A2B"/>
<circle cx="-70.3" cy="81.0" r="4.56" fill="#6B4423"/>
<circle cx="-2.9" cy="-107.7" r="4.57" fill="#6B4423"/>
<circle cx="75.2" cy="77.8" r="4.58" fill="#8A5A2B"/>
<circle cx="-108.4" cy="-6.6" r="4.59" fill="#6B4423"/>
<circle cx="84.7" cy="-68.6" r="4.60" fill="#6B4423"/>
<circle cx="-16.2" cy="108.2" r="4.61" fill="#8A5A2B"/>
<circle cx="-61.4" cy="-91.1" r="4.62" fill="#6B4423"/>
<circle cx="107.2" cy="25.8" r="4.63" fill="#6B4423"/>
<circle cx="-96.8" cy="53.6" r="4.64" fill="#8A5A2B"/>
<circle cx="35.3" cy="-105.4" r="4.65" fill="#6B4423"/>
<circle cx="45.3" cy="101.9" r="4.66" fill="#6B4423"/>
<circle cx="-102.6" cy="-44.7" r="4.67" fill="#8A5A2B"/>
<circle cx="106.3" cy="-36.5" r="4.68" fill="#6B4423"/>
<circle cx="-53.9" cy="99.0" r="4.68" fill="#6B4423"/>
<circle cx="-27.2" cy="-109.9" r="4.69" fill="#8A5A2B"/>
<circle cx="94.6" cy="62.8" r="4.70" fill="#6B4423"/>
<circle cx="-112.6" cy="17.7" r="4.71" fill="#6B4423"/>
<circle cx="71.4" cy="-89.4" r="4.72" fill="#8A5A2B"/>
<circle cx="7.8" cy="114.5" r="4.73" fill="#6B4423"/>
<circle cx="-83.4" cy="-79.5" r="4.74" fill="#6B4423"/>
<circle cx="115.6" cy="2.3" r="4.75" fill="#8A5A2B"/>
<circle cx="-87.1" cy="76.7" r="4.76" fill="#6B4423"/>
<circle cx="12.4" cy="-115.7" r="4.77" fill="#6B4423"/>
<circle cx="69.3" cy="94.1" r="4.77" fill="#8A5A2B"/>
<circle cx="-115.0" cy="-22.7" r="4.78" fill="#6B4423"/>
<circle cx="100.4" cy="-61.2" r="4.79" fill="#6B4423"/>
<circle r="122" fill="none" stroke="#C47D08" stroke-width="4" opacity="0.55"/>
</g>
</svg>